<svg width="96" height="84" viewBox="0 0 96 84" fill="none" xmlns="http://www.w3.org/2000/svg">
<path d="M20.9323 31.3926C21.4423 32.2161 20.8337 33.3791 19.8663 33.4294C12.1957 33.8283 4.92782 38.1533 1.10811 45.4517L0.32684 46.9445C-0.0327046 47.6315 0.23266 48.4799 0.91977 48.8395L2.41256 49.6208C13.4051 55.3739 26.9802 51.1265 32.7333 40.1339C33.0805 39.4705 33.4278 38.807 33.775 38.1436C39.5281 27.151 35.2807 13.5759 24.2881 7.82281L22.7953 7.04153C22.1082 6.68193 21.2598 6.94748 20.9003 7.63446L20.119 9.12725C16.2993 16.4256 16.8881 24.8625 20.9323 31.3926Z" fill="white"/>
<path d="M61.445 1.43828C60.481 0.0550252 58.3934 0.187244 57.6116 1.68108L16.3595 80.5021C15.5777 81.9959 16.6589 83.7865 18.345 83.7902L52.797 83.8659C55.8338 83.8726 58.622 82.1891 60.0301 79.4985L73.6403 53.4933C74.207 52.4104 75.5446 51.9919 76.6276 52.5587C77.7107 53.1256 78.1292 54.4632 77.5624 55.5461L65.0899 79.3775C64.0149 81.4316 65.5015 83.8937 67.8199 83.8988L73.7002 83.9117C78.5171 83.9223 82.9397 81.2519 85.1733 76.9841L93.9428 60.2281C96.1764 55.9604 95.8498 50.8044 93.0956 46.8526L76.1654 22.5602C74.8399 20.6582 71.9695 20.84 70.8945 22.8941L48.2578 66.1463C47.691 67.2292 46.3535 67.6478 45.2704 67.0809C44.1873 66.5141 43.7689 65.1765 44.3356 64.0936L66.7667 21.2342C69.0003 16.9665 68.6738 11.8105 65.9196 7.85864L61.445 1.43828Z" fill="white"/>
</svg>