<svg width="168" height="120" viewBox="0 0 168 120" fill="none" xmlns="http://www.w3.org/2000/svg">
<path fill-rule="evenodd" clip-rule="evenodd" d="M144.003 92.0033C144.001 94.2112 142.211 96 140.003 96H99.9999C97.7908 96 95.9999 97.7909 95.9999 100V116C95.9999 118.209 94.209 120 91.9999 120H75.9999C73.7908 120 71.9999 118.209 71.9999 116V100C71.9999 97.7909 70.209 96 67.9999 96H27.9966C25.7887 96 23.9984 94.2112 23.9966 92.0033L23.9832 75.9967C23.9814 73.7888 22.1911 72 19.9832 72H3.99991C1.79077 72 -9.15527e-05 70.2091 -9.15527e-05 68V4C-9.15527e-05 1.79086 1.79077 0 3.99991 0H19.9999C22.209 0 23.9999 1.79086 23.9999 4V20C23.9999 22.2091 25.7908 24 27.9999 24H67.9999C70.209 24 71.9999 25.7909 71.9999 28V44C71.9999 46.2091 73.7908 48 75.9999 48H91.9999C94.209 48 95.9999 46.2091 95.9999 44V28C95.9999 25.7909 97.7908 24 99.9999 24H140C142.209 24 144 22.2091 144 20V4C144 1.79086 145.791 0 148 0H164C166.209 0 168 1.79086 168 4V68C168 70.2091 166.209 72 164 72H148.017C145.809 72 144.018 73.7888 144.017 75.9967L144.003 92.0033ZM100.003 72C97.7928 72 96.0014 70.2071 96.0032 67.9967L96.0166 51.9967C96.0184 49.7888 97.8087 48 100.017 48H140C142.209 48 144 49.7909 144 52V68C144 70.2091 142.209 72 140 72H100.003ZM27.9999 48C25.7908 48 23.9999 49.7909 23.9999 52V68C23.9999 70.2091 25.7908 72 27.9999 72H67.9966C70.207 72 71.9984 70.2071 71.9966 67.9967L71.9832 51.9967C71.9814 49.7888 70.1911 48 67.9832 48H27.9999Z" fill="#FE2B58"/>
</svg>
